<?xml version="1.0" encoding="UTF-8"?>
<svg version="1.1" xmlns="http://www.w3.org/2000/svg" width="1024" height="1024">
<path d="M0 0 C337.92 0 675.84 0 1024 0 C1024 337.92 1024 675.84 1024 1024 C686.08 1024 348.16 1024 0 1024 C0 686.08 0 348.16 0 0 Z " fill="#FBFBFB" transform="translate(0,0)"/>
<path d="M0 0 C1.03606711 0.92666467 2.06477409 1.86162454 3.0859375 2.8046875 C5.70031571 5.22718279 5.70031571 5.22718279 8.31640625 5.01953125 C9.20199219 4.68308594 10.08757812 4.34664063 11 4 C11.96268799 3.65654541 11.96268799 3.65654541 12.94482422 3.30615234 C15.28774194 2.46299217 17.61161565 1.57650263 19.9375 0.6875 C40.17320284 -6.85404221 68.44446128 -15.94184008 89.953125 -8.04296875 C95.93328136 -4.99582801 99.4441399 -1.22944329 102 5 C104.87945432 26.85985736 93.05101935 45.52697836 80.35498047 62.25439453 C78.06782506 65.20091006 75.71906704 68.08777586 73.3125 70.9375 C72.82579834 71.51604736 72.33909668 72.09459473 71.83764648 72.69067383 C69.05526665 75.90597718 66.17134645 78.78324075 62.9375 81.546875 C54.02042529 89.13194499 54.02042529 89.13194499 50.76757812 99.95605469 C50.74403315 103.19610462 50.83661177 106.42269068 50.97216797 109.65966797 C51.31923053 138.84336703 34.64423877 169.00137587 15.26171875 189.703125 C-0.2763832 205.48275185 -18.58582677 215.50004588 -40 221 C-41.11503906 221.2990625 -42.23007813 221.598125 -43.37890625 221.90625 C-68.47900644 227.65558366 -93.51336303 224.00203705 -117.41796875 215.62109375 C-118.21936279 215.34579834 -119.02075684 215.07050293 -119.84643555 214.78686523 C-122 214 -122 214 -125.03125 212.5625 C-129.70521506 211.67690662 -133.08018595 213.65018736 -137.3125 215.5625 C-139.11092516 216.32459454 -140.91175374 217.08104022 -142.71484375 217.83203125 C-144.05651611 218.39204834 -144.05651611 218.39204834 -145.42529297 218.96337891 C-164.31591895 226.56906807 -191.90283435 234.33129798 -211.7890625 227.03515625 C-217.87910919 224.1838093 -223.73944398 221.05603894 -226.40625 214.57421875 C-230.43291695 197.11649823 -222.96862029 180.63168736 -214 166 C-211.49318636 162.19519195 -208.82027413 158.57732315 -206 155 C-205.26652344 154.06285156 -204.53304687 153.12570312 -203.77734375 152.16015625 C-200.19003298 147.67447949 -196.72694212 143.73993543 -192.3125 140.0625 C-189.74938531 137.6006942 -189.02016311 136.68371257 -188.9140625 133.0859375 C-189.43007783 129.98214379 -190.18116573 127.03634716 -191 124 C-194.03140808 105.45264161 -193.19622622 85.05738383 -188 67 C-187.79101074 66.26539551 -187.58202148 65.53079102 -187.36669922 64.77392578 C-178.27014452 33.96828999 -155.92034136 7.32622242 -127.86279297 -8.015625 C-86.63525915 -29.8019181 -38.57086354 -24.90017773 0 0 Z " fill="#FC6717" transform="translate(291,383)"/>
<path d="M0 0 C3.97354945 3.48539842 5.84473144 7.53427369 6.53125 12.74609375 C6.7282633 37.20036946 -7.39810029 57.09414401 -22.625 75.125 C-23.11170166 75.70354736 -23.59840332 76.28209473 -24.09985352 76.87817383 C-26.88223335 80.09347718 -29.76615355 82.97074075 -33 85.734375 C-41.91707471 93.31944499 -41.91707471 93.31944499 -45.16992188 104.14355469 C-45.19346685 107.38360462 -45.10088823 110.61019068 -44.96533203 113.84716797 C-44.61826947 143.03086703 -61.29326123 173.18887587 -80.67578125 193.890625 C-96.2138832 209.67025185 -114.52332677 219.68754588 -135.9375 225.1875 C-137.05253906 225.4865625 -138.16757813 225.785625 -139.31640625 226.09375 C-164.41650644 231.84308366 -189.45086303 228.18953705 -213.35546875 219.80859375 C-214.15686279 219.53329834 -214.95825684 219.25800293 -215.78393555 218.97436523 C-217.9375 218.1875 -217.9375 218.1875 -220.96875 216.75 C-225.64271506 215.86440662 -229.01768595 217.83768736 -233.25 219.75 C-235.04842516 220.51209454 -236.84925374 221.26854022 -238.65234375 222.01953125 C-239.99401611 222.57954834 -239.99401611 222.57954834 -241.36279297 223.15087891 C-260.25341895 230.75656807 -287.84033435 238.51879798 -307.7265625 231.22265625 C-313.81660919 228.3713093 -319.67694398 225.24353894 -322.34375 218.76171875 C-326.37041695 201.30399823 -318.90612029 184.81918736 -309.9375 170.1875 C-307.43068636 166.38269195 -304.75777413 162.76482315 -301.9375 159.1875 C-301.20402344 158.25035156 -300.47054687 157.31320312 -299.71484375 156.34765625 C-295.11563217 150.59666955 -290.2735372 145.2618242 -284.9375 140.1875 C-282.38511309 142.73988691 -281.56648015 145.205287 -280.25 148.5625 C-279.79238281 149.70460938 -279.33476562 150.84671875 -278.86328125 152.0234375 C-277.62309008 156.26206554 -277.62309008 156.26206554 -278.9375 159.1875 C-280.16488465 161.23501353 -281.44209601 163.25295922 -282.75 165.25 C-287.86804221 173.33262247 -292.09570598 181.42547818 -290.9375 191.1875 C-289.99586898 194.68498664 -289.06443181 196.45442517 -286.00390625 198.4453125 C-271.885325 205.07571355 -256.15146147 199.96240555 -241.9375 196.1875 C-241.13683105 195.97883301 -240.33616211 195.77016602 -239.51123047 195.55517578 C-209.50111502 187.53418596 -180.72469143 171.21430796 -154.9375 154.1875 C-153.68320785 153.36531802 -152.42863062 152.54357086 -151.17382812 151.72216797 C-127.46475429 136.27857709 -127.46475429 136.27857709 -104.9375 119.1875 C-104.35178223 118.70780762 -103.76606445 118.22811523 -103.16259766 117.73388672 C-96.79026428 112.48432294 -90.58256137 107.05316262 -84.47851562 101.49365234 C-82.87054795 100.03430736 -81.25638055 98.58173968 -79.63378906 97.13867188 C-66.58747036 85.52879321 -53.32171816 73.29699821 -42.9375 59.1875 C-42.32132812 58.36507812 -41.70515625 57.54265625 -41.0703125 56.6953125 C-33.95468199 46.89223356 -27.71228631 37.78500723 -29.3125 25.25 C-32.1405261 21.66058226 -35.6183296 20.89547075 -39.9375 20.1875 C-49.94742303 19.32651186 -59.38735584 20.04703766 -69.1171875 22.53125 C-71.9375 23.1875 -71.9375 23.1875 -75.9375 23.1875 C-77.6484375 21.578125 -77.6484375 21.578125 -79.3125 19.4375 C-82.25426608 15.85400956 -84.95086256 13.52114143 -88.9375 11.1875 C-85.15840144 7.82716642 -80.7463669 6.42606929 -76.0625 4.75 C-75.20970459 4.44288086 -74.35690918 4.13576172 -73.47827148 3.81933594 C-53.81599175 -3.17612904 -18.66576568 -14.69350563 0 0 Z " fill="#022345" transform="translate(386.9375,378.8125)"/>
<path d="M0 0 C1.1360946 35.97632908 -10.99780413 69.27874106 -35.73828125 95.703125 C-51.2763832 111.48275185 -69.58582677 121.50004588 -91 127 C-92.11503906 127.2990625 -93.23007813 127.598125 -94.37890625 127.90625 C-120.08757554 133.79498019 -148.90700534 130.67210213 -173 120 C-174.36101355 119.03801253 -175.70293132 118.0466091 -177 117 C-168.89681864 112.91464322 -160.77883272 108.86803061 -152.58984375 104.95703125 C-123.06311906 90.83935326 -95.72647787 75.06148598 -69.30615234 55.68847656 C-66.94489845 53.95965675 -64.57639646 52.24111938 -62.20703125 50.5234375 C-52.47147486 43.43972676 -43.00430692 36.10818882 -33.73242188 28.42822266 C-31.25689123 26.3873751 -28.75001785 24.38572864 -26.25 22.375 C-21.26430889 18.29647976 -16.53551224 13.97323925 -11.8125 9.59765625 C-9.33462833 7.30906644 -6.83969929 5.04636366 -4.3125 2.8125 C-3.68988281 2.26207031 -3.06726563 1.71164062 -2.42578125 1.14453125 C-1 0 -1 0 0 0 Z " fill="#FB6716" transform="translate(342,477)"/>
<path d="M0 0 C12.54 0 25.08 0 38 0 C38 2.97 38 5.94 38 9 C35.09399739 10.25664978 33.20395416 11 30 11 C35.15594708 30.3845475 40.5342633 49.70104167 46 69 C48.63990686 61.42321727 50.74387862 53.75132108 52.79296875 45.99609375 C53.14715847 44.66367651 53.50159905 43.33132593 53.85627747 41.9990387 C54.78100761 38.52278362 55.7023675 35.04564426 56.62298584 31.56829834 C57.56625206 28.00787374 58.51276174 24.44831168 59.45898438 20.88867188 C61.30913343 13.92661232 63.15541546 6.96353637 65 0 C69.95 0 74.9 0 80 0 C85.94 22.77 91.88 45.54 98 69 C99.46630719 66.06738562 100.40746585 63.90657591 101.22094727 60.83325195 C101.54622154 59.6159716 101.54622154 59.6159716 101.87806702 58.37409973 C102.21879494 57.06936958 102.21879494 57.06936958 102.56640625 55.73828125 C102.80536118 54.83305222 103.0443161 53.92782318 103.29051208 52.99516296 C103.79448698 51.08013253 104.29614639 49.16449145 104.7956543 47.24829102 C105.55570752 44.33850433 106.32718281 41.43191369 107.09960938 38.52539062 C107.58924228 36.65903783 108.07819622 34.79250675 108.56640625 32.92578125 C108.91017052 31.63623283 108.91017052 31.63623283 109.26087952 30.32063293 C111.52339414 22.26141821 111.52339414 22.26141821 112 14 C109.69393969 11.01499619 107.68953655 10.49858602 104 10 C104 6.7 104 3.4 104 0 C114.23 0 124.46 0 135 0 C135 2.97 135 5.94 135 9 C133.03177114 10.96822886 129.65191291 10.66248381 127 11 C124.38342982 18.54202783 122.24799054 26.17452037 120.1640625 33.87890625 C119.79949075 35.21785187 119.434606 36.5567123 119.06942749 37.89549255 C117.72564148 42.82437835 116.38693403 47.75463949 115.04901123 52.68511963 C113.73651297 57.52145568 112.42143228 62.35707633 111.1015625 67.19140625 C110.92076393 67.85374897 110.73996536 68.51609169 110.55368805 69.1985054 C107.90778889 78.87364544 105.09943415 88.46090486 102 98 C96.39 98 90.78 98 85 98 C82.70849402 91.32241171 80.71721002 84.60791147 78.86328125 77.796875 C78.43682564 76.23564911 78.43682564 76.23564911 78.00175476 74.6428833 C77.40625907 72.45826822 76.81218904 70.27326406 76.21948242 68.08789062 C75.31095192 64.74430274 74.39291938 61.40341327 73.47460938 58.0625 C72.89524867 55.93245061 72.3164528 53.80224748 71.73828125 51.671875 C71.46333328 50.67597351 71.18838531 49.68007202 70.90510559 48.6539917 C70.65451889 47.72242249 70.40393219 46.79085327 70.14575195 45.83105469 C69.92385696 45.01658875 69.70196198 44.2021228 69.4733429 43.36297607 C68.97031056 40.85178727 68.91678164 38.5543941 69 36 C68.34 36 67.68 36 67 36 C66.89301285 36.58152328 66.7860257 37.16304657 66.67579651 37.76219177 C65.36156899 44.63752637 63.63900426 51.35225471 61.77734375 58.09765625 C61.47180069 59.21313339 61.16625763 60.32861053 60.85145569 61.47789001 C60.21020531 63.815398 59.56723134 66.15243377 58.92260742 68.48901367 C57.93218578 72.08177738 56.94915753 75.67650924 55.96679688 79.27148438 C55.34158456 81.54699559 54.71594887 83.82239053 54.08984375 86.09765625 C53.64764748 87.71620262 53.64764748 87.71620262 53.19651794 89.3674469 C52.92275833 90.3561528 52.64899872 91.3448587 52.36694336 92.36352539 C52.12648788 93.23715225 51.88603241 94.11077911 51.63829041 95.01087952 C51 97 51 97 50 98 C47.13732433 98.07325168 44.299281 98.09238205 41.4375 98.0625 C40.63119141 98.05798828 39.82488281 98.05347656 38.99414062 98.04882812 C36.99606244 98.03700518 34.99802217 98.01906914 33 98 C30.23172951 92.02718964 28.4341626 85.93589407 26.671875 79.6015625 C26.35978088 78.49436859 26.04768677 77.38717468 25.72613525 76.24642944 C24.72963999 72.70718634 23.73972132 69.16614263 22.75 65.625 C22.10069257 63.31498265 21.45095659 61.00508572 20.80078125 58.6953125 C20.48057007 57.55487488 20.16035889 56.41443726 19.83044434 55.23944092 C19.18348575 52.94068441 18.53317947 50.64286741 17.8795166 48.3460083 C16.2322352 42.53083073 14.66606549 36.71161869 13.23632812 30.83886719 C12.94647034 29.69316254 12.65661255 28.54745789 12.35797119 27.36703491 C11.81112285 25.19638259 11.28950005 23.01916085 10.79779053 20.83535767 C9.51702139 15.46173477 9.51702139 15.46173477 5.99890137 11.4319458 C3.57647941 10.14606615 3.57647941 10.14606615 0 9 C0 6.03 0 3.06 0 0 Z " fill="#022243" transform="translate(587,518)"/>
<path d="M0 0 C6.45544051 -0.09974532 12.91042091 -0.17187928 19.36645508 -0.21972656 C21.5572899 -0.23969742 23.74807243 -0.26688378 25.9387207 -0.30175781 C55.82296673 -0.76518512 55.82296673 -0.76518512 66.34375 8.1953125 C72.47697375 14.87821196 73.78119674 21.81872654 73.4140625 30.7265625 C72.496283 37.98221555 69.42134679 42.33419568 63.73828125 46.8125 C60.46224552 49.05051092 57.95537899 50 54 50 C54 50.66 54 51.32 54 52 C54.90141724 52.37402954 54.90141724 52.37402954 55.82104492 52.75561523 C63.5292177 57.15769441 67.79117641 69.86755947 71.76367188 77.44335938 C72.52067383 78.86165039 72.52067383 78.86165039 73.29296875 80.30859375 C73.7418042 81.16251709 74.19063965 82.01644043 74.65307617 82.89624023 C76.52252371 85.81612956 78.33856515 86.84617794 81.6875 87.625 C82.8321875 87.810625 82.8321875 87.810625 84 88 C84 90.97 84 93.94 84 97 C74.76 97 65.52 97 56 97 C54.906875 94.834375 53.81375 92.66875 52.6875 90.4375 C52.3069043 89.68831299 51.92630859 88.93912598 51.53417969 88.16723633 C49.32901731 83.78716845 47.25426265 79.36954434 45.265625 74.88671875 C44.79680908 73.85039307 44.32799316 72.81406738 43.8449707 71.74633789 C42.9169053 69.68817376 42.00864675 67.62094704 41.12182617 65.54467773 C40.68845947 64.59407471 40.25509277 63.64347168 39.80859375 62.6640625 C39.43532959 61.81279785 39.06206543 60.9615332 38.67749023 60.08447266 C36.26762379 57.08993915 33.66658798 56.78140841 30 56 C30.1179762 60.25435079 30.2422037 64.50845821 30.37231445 68.76245117 C30.4157163 70.2106424 30.45738744 71.65888654 30.49731445 73.10717773 C30.55489062 75.18489559 30.61862028 77.26234573 30.68359375 79.33984375 C30.72025146 80.59144287 30.75690918 81.84304199 30.79467773 83.13256836 C30.67803906 85.89630504 30.67803906 85.89630504 32 87 C34.32817964 87.36760731 36.6618385 87.70241581 39 88 C39 90.97 39 93.94 39 97 C26.13 97 13.26 97 0 97 C0 94.03 0 91.06 0 88 C3.96 87.01 3.96 87.01 8 86 C7.67 61.58 7.34 37.16 7 12 C4.69 11.01 2.38 10.02 0 9 C0 6.03 0 3.06 0 0 Z " fill="#032343" transform="translate(759,392)"/>
<path d="M0 0 C25.86128005 -3.61975598 25.86128005 -3.61975598 33.74707031 1.93505859 C38.49404885 7.22160828 41.5277497 13.46052748 44.50292969 19.86572266 C46.76606795 24.60384545 49.54341675 28.98359456 52.3125 33.4375 C53.27576922 35.05643715 54.23547985 36.6774976 55.19140625 38.30078125 C58.36820094 43.65531582 61.68651339 48.91886106 65.0559082 54.15405273 C68 58.78518781 68 58.78518781 68 61 C68.66 61 69.32 61 70 61 C69.90767216 54.52187376 69.80035871 48.04412011 69.68261719 41.56640625 C69.64433114 39.36268753 69.60947763 37.15890639 69.578125 34.95507812 C69.5324667 31.78753348 69.47447298 28.62041838 69.4140625 25.453125 C69.40251129 24.46757629 69.39096008 23.48202759 69.37905884 22.46661377 C69.35918915 21.5459613 69.33931946 20.62530884 69.31884766 19.67675781 C69.30552399 18.8684552 69.29220032 18.06015259 69.2784729 17.22735596 C68.96680404 14.73448327 68.3545959 13.11103857 67 11 C64.59595262 10.08400573 64.59595262 10.08400573 61.875 9.75 C60.50988281 9.52570313 60.50988281 9.52570313 59.1171875 9.296875 C58.41851563 9.19890625 57.71984375 9.1009375 57 9 C57 6.03 57 3.06 57 0 C68.22 0 79.44 0 91 0 C91 2.97 91 5.94 91 9 C88.36 9.33 85.72 9.66 83 10 C82.67 39.04 82.34 68.08 82 98 C76.39 98 70.78 98 65 98 C59.63732365 91.98889546 59.63732365 91.98889546 58.32397461 89.10961914 C58.0266745 88.48121124 57.72937439 87.85280334 57.42306519 87.20535278 C57.11845367 86.56008636 56.81384216 85.91481995 56.5 85.25 C55.8165636 83.93298655 55.12574223 82.61978184 54.42797852 81.31030273 C52.9823214 78.58901844 51.56577863 75.85523412 50.16455078 73.11083984 C47.08665053 67.16882375 43.5592261 61.50557115 40.03076172 55.82385254 C34.14027231 46.33369268 28.49386679 36.72300441 23 27 C22.97455444 33.97427589 22.95709303 40.94853972 22.94506836 47.92285156 C22.94005308 50.29329882 22.93323927 52.66374301 22.92456055 55.03417969 C22.91237187 58.44987753 22.90674351 61.86553431 22.90234375 65.28125 C22.89718246 66.33364868 22.89202118 67.38604736 22.88670349 68.47033691 C22.88628047 74.07334896 23.07563912 79.46762509 24 85 C25.49743119 86.49743119 26.98824239 86.33202693 29.0625 86.5625 C30.361875 86.706875 31.66125 86.85125 33 87 C33 90.3 33 93.6 33 97 C22.11 97 11.22 97 0 97 C0 94.03 0 91.06 0 88 C4.95 87.01 4.95 87.01 10 86 C9.67 61.25 9.34 36.5 9 11 C4.545 10.01 4.545 10.01 0 9 C0 6.03 0 3.06 0 0 Z " fill="#032242" transform="translate(849,392)"/>
<path d="M0 0 C6.93 0 13.86 0 21 0 C21.49814209 1.61559814 21.99628418 3.23119629 22.50952148 4.89575195 C24.19530453 10.36056464 25.88397408 15.82448124 27.57441616 21.28785419 C28.5947108 24.58571039 29.61400232 27.88386815 30.63061523 31.18286133 C31.81167549 35.01484873 32.99606136 38.84579461 34.18359375 42.67578125 C34.47771715 43.62458853 34.47771715 43.62458853 34.77778244 44.59256363 C38.12684422 55.37621683 41.64773853 66.09518942 45.28623962 76.7849884 C45.64303299 77.83844955 45.99982635 78.89191071 46.36743164 79.97729492 C46.68361954 80.90265549 46.99980743 81.82801605 47.32557678 82.78141785 C48 85 48 85 48 87 C49.98 87.33 51.96 87.66 54 88 C54 91.3 54 94.6 54 98 C41.46 98 28.92 98 16 98 C16 94.7 16 91.4 16 88 C19.96 87.01 19.96 87.01 24 86 C22.68 79.73 21.36 73.46 20 67 C10.1 67 0.2 67 -10 67 C-10.33 69.31 -10.66 71.62 -11 74 C-11.18433594 74.70640625 -11.36867188 75.4128125 -11.55859375 76.140625 C-12.09271135 78.39053629 -12.09645824 80.44083979 -12.0625 82.75 C-12.05347656 83.54921875 -12.04445313 84.3484375 -12.03515625 85.171875 C-12.02355469 85.77515625 -12.01195312 86.3784375 -12 87 C-9.69 87.66 -7.38 88.32 -5 89 C-4.505 93.455 -4.505 93.455 -4 98 C-14.89 98 -25.78 98 -37 98 C-37 95.03 -37 92.06 -37 89 C-34.36 88.67 -31.72 88.34 -29 88 C-26.70443791 81.16675025 -24.49029976 74.31052606 -22.3046875 67.44140625 C-21.58088739 65.17377762 -20.85692338 62.90620129 -20.1328125 60.63867188 C-19.01277981 57.12996341 -17.89360315 53.62099483 -16.77734375 50.11108398 C-11.43422456 33.31688475 -5.83853308 16.6285483 0 0 Z " fill="#032343" transform="translate(545,518)"/>
<path d="M0 0 C6.6 0 13.2 0 20 0 C24.17505251 12.97389793 28.31305012 25.95797935 32.359375 38.97265625 C33.08973108 41.31579033 33.82020018 43.65888919 34.55078125 46.00195312 C35.66212426 49.56641875 36.77133489 53.13148404 37.87451172 56.69848633 C38.96734176 60.2293693 40.06882013 63.75745626 41.171875 67.28515625 C41.49798767 68.34662369 41.82410034 69.40809113 42.16009521 70.50172424 C43.98646268 76.31291738 45.91998828 81.72791132 49 87 C52.08601755 88.58849847 52.08601755 88.58849847 55 89 C55 91.97 55 94.94 55 98 C41.8 98 28.6 98 15 98 C15 95.03 15 92.06 15 89 C20.625 87 20.625 87 24 87 C21.525 77.595 21.525 77.595 19 68 C9.43 67.67 -0.14 67.34 -10 67 C-11.70413874 74.55457847 -11.70413874 74.55457847 -12.625 82.0625 C-12.69976563 83.00222656 -12.77453125 83.94195312 -12.8515625 84.91015625 C-12.90054688 85.59980469 -12.94953125 86.28945313 -13 87 C-11.865625 87.309375 -10.73125 87.61875 -9.5625 87.9375 C-6 89 -6 89 -5 90 C-5 92.64 -5 95.28 -5 98 C-15.56 98 -26.12 98 -37 98 C-37 95.03 -37 92.06 -37 89 C-35.9275 88.835 -34.855 88.67 -33.75 88.5 C-31.42221607 87.82896095 -30.30107414 87.41526043 -28.86535645 85.43502808 C-26.43530967 80.25761414 -24.59294301 75.05073315 -22.96875 69.5703125 C-22.40521886 67.71896121 -21.84157495 65.86764424 -21.27783203 64.01635742 C-20.84256195 62.57297501 -20.84256195 62.57297501 -20.39849854 61.10043335 C-14.18125949 40.51166256 -7.35967063 20.2053961 0 0 Z " fill="#022141" transform="translate(538,391)"/>
<path d="M0 0 C12.54 0 25.08 0 38 0 C38 2.97 38 5.94 38 9 C35.36 9.99 32.72 10.98 30 12 C29.90692095 19.66746582 29.83604413 27.33487233 29.79275131 35.00277615 C29.77196246 38.56414829 29.74380715 42.12513114 29.69824219 45.6862793 C29.64607467 49.78958669 29.62698306 53.89249139 29.609375 57.99609375 C29.58872986 59.26206894 29.56808472 60.52804413 29.54681396 61.8323822 C29.54466831 70.35867478 30.39662008 77.21183137 36.4375 83.5625 C42.44846709 85.98797795 48.99116223 86.10971288 55.2578125 84.375 C59.44046117 82.34704913 61.3623668 79.32283524 63.2734375 75.29296875 C65.14838332 69.37580103 65.15921047 63.32766925 65.125 57.1875 C65.12306641 56.32036377 65.12113281 55.45322754 65.11914062 54.55981445 C65.03026048 40.03655153 64.47793069 25.51460255 64 11 C61.69 10.01 59.38 9.02 57 8 C57 5.36 57 2.72 57 0 C66.9 0 76.8 0 87 0 C87 2.97 87 5.94 87 9 C84.69 9.66 82.38 10.32 80 11 C79.99191315 11.70664291 79.98382629 12.41328583 79.97549438 13.14134216 C79.89721855 19.83453093 79.80983138 26.52753344 79.71247292 33.22047329 C79.66274661 36.6605325 79.61641682 40.10056448 79.578125 43.54077148 C79.53384364 47.50521417 79.47429298 51.4693601 79.4140625 55.43359375 C79.40251129 56.65582138 79.39096008 57.87804901 79.37905884 59.13731384 C79.18907393 70.23371305 78.08520309 79.6150974 70.17578125 87.9140625 C59.37245559 97.88962843 48.38495448 98.74616274 34.23144531 98.18798828 C29.65977739 97.80284777 25.92069436 96.29561782 22 94 C20.329375 93.0409375 20.329375 93.0409375 18.625 92.0625 C12.80742768 87.49155032 9.9927953 82.03217877 8 75 C7.42352383 70.01077693 7.39368039 65.03964064 7.390625 60.0234375 C7.3756133 58.60281518 7.35887997 57.18221012 7.34051514 55.7616272 C7.29716368 52.0562044 7.27691504 48.35101685 7.26177979 44.64538574 C7.24209119 40.85069042 7.20013524 37.05624494 7.16015625 33.26171875 C7.08520405 25.84121354 7.03470224 18.42081433 7 11 C4.69 10.34 2.38 9.68 0 9 C0 6.03 0 3.06 0 0 Z " fill="#032242" transform="translate(665,392)"/>
<path d="M0 0 C1 1 1 1 1.11352539 3.22485352 C1.10828857 4.18319092 1.10305176 5.14152832 1.09765625 6.12890625 C1.09443359 7.16337891 1.09121094 8.19785156 1.08789062 9.26367188 C1.07532227 10.8965918 1.07532227 10.8965918 1.0625 12.5625 C1.05798828 13.65498047 1.05347656 14.74746094 1.04882812 15.87304688 C1.0369984 18.58205432 1.01906231 21.2910338 1 24 C-2.63 24 -6.26 24 -10 24 C-10.20625 22.618125 -10.4125 21.23625 -10.625 19.8125 C-11.75075549 14.63239323 -13.65235882 12.89842745 -18 10 C-21.92767594 8.03616203 -26.71773499 8.52489663 -31 9 C-33.65563802 10.8968843 -34.57242527 12.14485055 -36 15 C-36.31305658 17.49756337 -36.31305658 17.49756337 -36.375 20.3125 C-36.42398437 21.25738281 -36.47296875 22.20226562 -36.5234375 23.17578125 C-35.78496333 27.16023515 -34.1090207 28.45550108 -31 31 C-28.61198541 32.44099623 -26.29193118 33.74847159 -23.8125 35 C-23.15193604 35.34393799 -22.49137207 35.68787598 -21.81079102 36.04223633 C-18.05099397 37.99099812 -14.2526566 39.84949903 -10.4375 41.6875 C-3.21454069 45.29897966 1.23241179 49.82507106 5 57 C7.27778238 63.83334715 7.15579609 73.28557632 4.4375 80 C-0.62501982 89.35159912 -8.51328756 93.72914883 -18.47265625 96.75 C-30.79915797 99.63620528 -45.50558423 98.74720788 -57 93 C-57 84.42 -57 75.84 -57 67 C-53.37 67 -49.74 67 -46 67 C-45.773125 68.711875 -45.54625 70.42375 -45.3125 72.1875 C-44.3950718 77.24962154 -43.26138244 79.85469391 -39 83 C-34.0472119 86.02550751 -28.6148444 85.60802459 -23 85 C-19.29561941 83.27554697 -17.65521225 82.13173025 -15.625 78.625 C-14.55092716 74.11389406 -14.40099684 71.25009355 -16.4375 67 C-22.33399973 60.0967808 -30.78211577 56.40008414 -38.7956543 52.42260742 C-45.63838623 48.9377587 -51.63582853 45.01686412 -54.875 37.8125 C-55.26429688 36.97332031 -55.65359375 36.13414062 -56.0546875 35.26953125 C-59.32743508 27.41223232 -58.5194641 20.46856909 -55.37890625 12.64453125 C-50.97490821 4.1983367 -43.71511666 0.15314004 -35 -3 C-23.6390984 -6.56599728 -11.0397368 -3.23019326 0 0 Z " fill="#032343" transform="translate(490,393)"/>
<path d="M0 0 C2.56971477 1.93206842 3.62347042 3.05970637 4.57421875 6.18359375 C5.89776291 16.35081933 -0.98707612 26.1998102 -6.78222656 34.01220703 C-9.34584429 37.26378062 -12.04663726 40.38025671 -14.83813477 43.43920898 C-16.03599373 44.75532498 -17.22197048 46.0822696 -18.40209961 47.41430664 C-24.05907556 53.78082918 -29.95381801 59.8628483 -35.98828125 65.87109375 C-36.88224609 66.76892578 -37.77621094 67.66675781 -38.69726562 68.59179688 C-43.77932675 73.66642265 -48.97191261 78.51394151 -54.42578125 83.18359375 C-55.54777715 84.18111998 -56.66762848 85.18106442 -57.78515625 86.18359375 C-89.86172939 114.70819013 -127.97863138 139.23282862 -166.42578125 158.18359375 C-167.41513672 158.67134277 -168.40449219 159.1590918 -169.42382812 159.66162109 C-191.59357166 170.4702679 -225.85300783 187.09370752 -251.05078125 178.62109375 C-255.88783666 176.35372403 -257.58932786 174.192103 -259.42578125 169.18359375 C-261.17873042 157.88681022 -254.33032304 147.41126092 -248.1953125 138.44921875 C-246.42578125 136.18359375 -246.42578125 136.18359375 -244.42578125 135.18359375 C-243.90371094 136.17617188 -243.38164062 137.16875 -242.84375 138.19140625 C-238.94166371 145.45239835 -234.86181837 152.33535995 -229.73828125 158.80859375 C-229.29959717 159.36305176 -228.86091309 159.91750977 -228.40893555 160.48876953 C-227.11283538 162.08378356 -225.77545546 163.63380551 -224.42578125 165.18359375 C-223.95849609 165.76737793 -223.49121094 166.35116211 -223.00976562 166.95263672 C-221.56174009 168.62613503 -220.27325517 169.96368709 -218.42578125 171.18359375 C-214.93231477 171.33556134 -214.93231477 171.33556134 -211.30078125 170.05859375 C-210.60686279 169.85411621 -209.91294434 169.64963867 -209.19799805 169.43896484 C-206.91959177 168.73942981 -204.67407323 167.9743492 -202.42578125 167.18359375 C-201.69085449 166.92771484 -200.95592773 166.67183594 -200.19873047 166.40820312 C-178.14353956 158.52415575 -156.1667446 147.76508077 -136.42578125 135.18359375 C-135.65008789 134.69036621 -134.87439453 134.19713867 -134.07519531 133.68896484 C-128.15588229 129.90827985 -122.28512039 126.05636427 -116.42578125 122.18359375 C-115.62930176 121.65942871 -114.83282227 121.13526367 -114.01220703 120.59521484 C-95.64797293 108.50539578 -77.63232378 96.09810689 -61.42578125 81.18359375 C-60.13811494 80.05401717 -58.84660507 78.92880284 -57.55078125 77.80859375 C-44.61561086 66.48075222 -32.52224571 54.39055149 -20.42578125 42.18359375 C-24.71700844 28.54754072 -31.33063678 16.22830495 -40.16015625 4.97265625 C-41.42578125 3.18359375 -41.42578125 3.18359375 -41.42578125 1.18359375 C-28.83756285 -2.65804238 -12.2501685 -6.95540019 0 0 Z " fill="#F9F8F8" transform="translate(354.42578125,400.81640625)"/>
<path d="M0 0 C25.41 0 50.82 0 77 0 C77 8.58 77 17.16 77 26 C74.36 26 71.72 26 69 26 C68.82726562 25.31292969 68.65453125 24.62585938 68.4765625 23.91796875 C66.84687301 18.39520156 66.84687301 18.39520156 62.71875 14.703125 C60.13888635 13.94159898 57.65853032 13.40627392 55 13 C52.99976693 12.6680681 50.99973879 12.33489684 49 12 C49.10747861 21.20551376 49.2201074 30.4109458 49.33933926 39.61631489 C49.39453899 43.89058671 49.44795431 48.16486542 49.49731445 52.43920898 C49.54500147 56.56301541 49.5973459 60.68673866 49.65294075 64.81044579 C49.67334463 66.38490927 49.69206097 67.95939554 49.70907402 69.53389931 C49.73316158 71.736632 49.76321011 73.93920781 49.79467773 76.1418457 C49.81799416 78.02381401 49.81799416 78.02381401 49.84178162 79.94380188 C49.86595704 83.04246696 49.86595704 83.04246696 51 86 C53.97 86.33 56.94 86.66 60 87 C60 90.3 60 93.6 60 97 C45.81 97 31.62 97 17 97 C17 93.7 17 90.4 17 87 C21.95 86.505 21.95 86.505 27 86 C27.33 61.58 27.66 37.16 28 12 C20.575 13.485 20.575 13.485 13 15 C10.24845833 20.43742474 10.24845833 20.43742474 9 26 C5.7 26 2.4 26 -1 26 C-0.67 17.42 -0.34 8.84 0 0 Z " fill="#012242" transform="translate(582,392)"/>
<path d="M0 0 C14.19 0 28.38 0 43 0 C43 3.3 43 6.6 43 10 C39.7 10.66 36.4 11.32 33 12 C32.67 36.09 32.34 60.18 32 85 C49.43475242 83.96896279 49.43475242 83.96896279 59 80 C60.16424546 77.1052049 60.67060407 75.30218676 61 72.3125 C61.10699219 71.61060547 61.21398437 70.90871094 61.32421875 70.18554688 C61.58222223 68.46161453 61.79558907 66.73110505 62 65 C65.3 65 68.6 65 72 65 C72.14690316 76.06670509 71.61579623 86.91566791 71 98 C47.57 98 24.14 98 0 98 C0 95.03 0 92.06 0 89 C2.97 87.68 5.94 86.36 9 85 C9 61.24 9 37.48 9 13 C6.03 12.01 3.06 11.02 0 10 C0 6.7 0 3.4 0 0 Z " fill="#042343" transform="translate(432,518)"/>
<path d="M0 0 C13.1 0 13.1 0 18 3 C21.73014085 7.52608411 22.65529306 11.19908379 22.5 16.9375 C22.48791504 17.64608154 22.47583008 18.35466309 22.46337891 19.0847168 C22.25272645 24.60317272 21.65046047 27.86921579 18 32 C12.16084317 36.52534654 8.15387778 35 0 35 C0 23.45 0 11.9 0 0 Z " fill="#F2F3F5" transform="translate(788,403)"/>
<path d="M0 0 C2.70919786 2.70919786 3.21095841 5.74044743 4.1640625 9.34375 C4.36099701 10.06864624 4.55793152 10.79354248 4.76083374 11.54040527 C5.17576418 13.07279235 5.58743628 14.60606486 5.99609375 16.14013672 C6.62301746 18.49256086 7.2598281 20.84213053 7.8984375 23.19140625 C8.30006127 24.67953052 8.70112208 26.16780686 9.1015625 27.65625 C9.2921524 28.36148804 9.48274231 29.06672607 9.67910767 29.79333496 C11 34.76634031 11 34.76634031 11 37 C3.74 37 -3.52 37 -11 37 C-8.05290553 24.38643565 -4.23399446 12.23788619 0 0 Z " fill="#F2F4F5" transform="translate(543,411)"/>
<path d="M0 0 C1.88432206 3.40623421 2.90511125 6.85005795 3.9453125 10.59375 C4.12005096 11.22228882 4.29478943 11.85082764 4.474823 12.49841309 C4.84157855 13.82242345 5.20621367 15.14702281 5.56884766 16.47216797 C6.12366568 18.49513484 6.68834911 20.51516894 7.25390625 22.53515625 C7.6099745 23.82535553 7.96546293 25.115715 8.3203125 26.40625 C8.80395264 28.15905273 8.80395264 28.15905273 9.29736328 29.94726562 C10 33 10 33 10 37 C2.74 37 -4.52 37 -12 37 C-10.75603317 32.70650282 -9.50503524 28.41526231 -8.25 24.125 C-7.90195312 22.92101562 -7.55390625 21.71703125 -7.1953125 20.4765625 C-5.14280922 13.48284762 -2.8750684 6.70010894 0 0 Z " fill="#F6F7F7" transform="translate(551,537)"/>
<path d="M0 0 C0.33 0.99 0.66 1.98 1 3 C0.030625 3.598125 -0.93875 4.19625 -1.9375 4.8125 C-5.23052042 6.71127509 -5.23052042 6.71127509 -6 10 C-5.1775882 9.99333817 -4.35517639 9.98667633 -3.50784302 9.97981262 C4.23220816 9.91977001 11.97214686 9.8740607 19.71236992 9.84456348 C23.69197374 9.82888899 27.67138559 9.80761862 31.65087891 9.77368164 C35.48934956 9.74115113 39.32763524 9.72316043 43.16623306 9.71536827 C44.63272134 9.70981334 46.09919918 9.69896621 47.56560898 9.68280983 C49.61541591 9.66111839 51.66445275 9.65802945 53.71435547 9.65942383 C54.88239716 9.65276199 56.05043884 9.64610016 57.25387573 9.63923645 C58.61320724 9.81781441 58.61320724 9.81781441 60 10 C60.99 11.485 60.99 11.485 62 13 C38.57 13 15.14 13 -9 13 C-9 10.03 -9 7.06 -9 4 C-6.03 2.68 -3.06 1.36 0 0 Z " fill="#375571" transform="translate(441,603)"/>
<path d="M0 0 C25.41 0 50.82 0 77 0 C77 8.58 77 17.16 77 26 C74.36 26 71.72 26 69 26 C66.875 20.375 66.875 20.375 68 17 C68.99 20.465 68.99 20.465 70 24 C71.98 24 73.96 24 76 24 C76 16.41 76 8.82 76 1 C51.25 1 26.5 1 1 1 C1 7.6 1 14.2 1 21 C0.67 21 0.34 21 0 21 C0 14.07 0 7.14 0 0 Z " fill="#00000E" transform="translate(582,392)"/>
<path d="M0 0 C10.23 0 20.46 0 31 0 C31 2.97 31 5.94 31 9 C30 10 30 10 26.625 10.375 C23.09792496 10.98311639 22.05637612 11.21784407 20 14 C20.1875 12.125 20.1875 12.125 21 10 C23.89111788 8.47835901 25.71823412 8 29 8 C29 6.02 29 4.04 29 2 C19.76 2 10.52 2 1 2 C1 3.98 1 5.96 1 8 C2.670625 8.433125 2.670625 8.433125 4.375 8.875 C8 10 8 10 10 12 C10.1953125 14.1640625 10.1953125 14.1640625 10.125 16.625 C10.10695313 17.44226563 10.08890625 18.25953125 10.0703125 19.1015625 C10.03550781 20.04128906 10.03550781 20.04128906 10 21 C9.67 21 9.34 21 9 21 C8.34 18.03 7.68 15.06 7 12 C4.69 11.34 2.38 10.68 0 10 C0 6.7 0 3.4 0 0 Z " fill="#020D2A" transform="translate(691,518)"/>
<path d="M0 0 C12.54 0 25.08 0 38 0 C38 2.97 38 5.94 38 9 C37 10 37 10 34.4375 10.0625 C33.633125 10.041875 32.82875 10.02125 32 10 C32.99 9.34 33.98 8.68 35 8 C35 6.35 35 4.7 35 3 C24.11 2.67 13.22 2.34 2 2 C2.33 4.31 2.66 6.62 3 9 C2.01 9 1.02 9 0 9 C0 6.03 0 3.06 0 0 Z " fill="#020D2D" transform="translate(587,518)"/>
<path d="M0 0 C-1 1 -1 1 -3.5625 1.0625 C-4.7690625 1.0315625 -4.7690625 1.0315625 -6 1 C-6 2.98 -6 4.96 -6 7 C3.57 7 13.14 7 23 7 C22.67 4.69 22.34 2.38 22 0 C22.66 0 23.32 0 24 0 C24.495 4.455 24.495 4.455 25 9 C14.11 9 3.22 9 -8 9 C-8 6.03 -8 3.06 -8 0 C-2.25 -1.125 -2.25 -1.125 0 0 Z " fill="#2A3549" transform="translate(516,607)"/>
<path d="M0 0 C0.66 0 1.32 0 2 0 C2 7.59 2 15.18 2 23 C-1.63 23 -5.26 23 -9 23 C-9.20625 21.618125 -9.4125 20.23625 -9.625 18.8125 C-10.77383522 13.58529973 -12.63364965 11.96911824 -17 9 C-17.78375 8.401875 -18.5675 7.80375 -19.375 7.1875 C-19.91125 6.795625 -20.4475 6.40375 -21 6 C-15.72559742 6.31966076 -12.56176651 9.39036029 -9 13 C-7.64560332 15.70879335 -7.93498549 18.00933268 -8 21 C-5.36 21 -2.72 21 0 21 C0 14.07 0 7.14 0 0 Z " fill="#071430" transform="translate(489,394)"/>
<path d="M0 0 C1.98 0 3.96 0 6 0 C6.33 0.99 6.66 1.98 7 3 C5.68 3.33 4.36 3.66 3 4 C3 3.34 3 2.68 3 2 C2.34 2 1.68 2 1 2 C1 24.11 1 46.22 1 69 C0.67 69 0.34 69 0 69 C0 46.23 0 23.46 0 0 Z " fill="#CEDAE7" transform="translate(631,404)"/>
<path d="M0 0 C10.56 0 21.12 0 32 0 C32 2.64 32 5.28 32 8 C30.35 8 28.7 8 27 8 C27 7.34 27 6.68 27 6 C27.66 6 28.32 6 29 6 C29 4.35 29 2.7 29 1 C19.76 1 10.52 1 1 1 C1 2.32 1 3.64 1 5 C1.99 5.33 2.98 5.66 4 6 C2.68 6 1.36 6 0 6 C0 4.02 0 2.04 0 0 Z " fill="#0E2E4F" transform="translate(908,393)"/>
<path d="M0 0 C0 0.66 0 1.32 0 2 C-3.73717884 2.63611555 -7.27043039 3.05681003 -11.0625 3 C-17.39563005 2.91203986 -23.69143024 3.49746813 -30 4 C-21.89409838 -1.40393442 -9.41853929 -0.28161745 0 0 Z " fill="#091631" transform="translate(368,373)"/>
<path d="M0 0 C5.94 0 11.88 0 18 0 C18 0.99 18 1.98 18 3 C12.39 3 6.78 3 1 3 C0.67 2.01 0.34 1.02 0 0 Z " fill="#192F49" transform="translate(671,613)"/>
<path d="M0 0 C3 3 3 3 3.2487793 6.9206543 C3.20636925 8.5556612 3.14709402 10.19028626 3.07421875 11.82421875 C3.04777786 12.68561966 3.02133698 13.54702057 2.99409485 14.43452454 C2.90631244 17.18621996 2.79717129 19.93659844 2.6875 22.6875 C2.62424315 24.55268716 2.56237703 26.41792204 2.50195312 28.28320312 C2.35076858 32.85617892 2.18042447 37.42808826 2 42 C1.67 42 1.34 42 1 42 C0.505 21.21 0.505 21.21 0 0 Z " fill="#F3F4F4" transform="translate(872,420)"/>
<path d="M0 0 C0.33 0 0.66 0 1 0 C1.08165496 2.20770805 1.13948488 4.41630425 1.1875 6.625 C1.22230469 7.85476563 1.25710938 9.08453125 1.29296875 10.3515625 C0.9787947 14.26407664 -0.03093467 16.64070218 -2 20 C-3.24539677 16.2638097 -2.71537884 13.88194307 -2.125 10 C-1.94195313 8.7625 -1.75890625 7.525 -1.5703125 6.25 C-1 3 -1 3 0 0 Z " fill="#11213C" transform="translate(831,412)"/>
<path d="M0 0 C1.32 0.33 2.64 0.66 4 1 C6.24707241 1.2198223 8.49771238 1.40483987 10.75 1.5625 C11.92046875 1.64628906 13.0909375 1.73007812 14.296875 1.81640625 C15.18890625 1.87699219 16.0809375 1.93757812 17 2 C17 2.33 17 2.66 17 3 C12.38 3 7.76 3 3 3 C3 4.65 3 6.3 3 8 C2.01 8.66 1.02 9.32 0 10 C0 6.7 0 3.4 0 0 Z " fill="#133251" transform="translate(432,518)"/>
<path d="M0 0 C0.99 0.33 1.98 0.66 3 1 C2.07038578 2.15224028 1.1309875 3.29659176 0.1875 4.4375 C-0.59560547 5.39462891 -0.59560547 5.39462891 -1.39453125 6.37109375 C-3 8 -3 8 -6 9 C-6.33 9.66 -6.66 10.32 -7 11 C-6.68232368 5.59950264 -3.80003673 3.47662935 0 0 Z " fill="#051934" transform="translate(442,397)"/>
<path d="M0 0 C2.97 0 5.94 0 9 0 C8.67 2.97 8.34 5.94 8 9 C6.35 8.67 4.7 8.34 3 8 C4.32 7.67 5.64 7.34 7 7 C7 5.68 7 4.36 7 3 C5.824375 3.0928125 5.824375 3.0928125 4.625 3.1875 C3.75875 3.125625 2.8925 3.06375 2 3 C1.34 2.01 0.68 1.02 0 0 Z " fill="#142D4B" transform="translate(633,479)"/>
<path d="M0 0 C0 0.66 0 1.32 0 2 C-0.5775 2.2475 -1.155 2.495 -1.75 2.75 C-4.10601158 3.90893522 -4.10601158 3.90893522 -5.875 6 C-8.41426965 8.38990085 -10.66911696 9.09157735 -14 10 C-12.69467452 6.08402356 -11.02734726 5.46169654 -7.5625 3.3125 C-6.07943359 2.37857422 -6.07943359 2.37857422 -4.56640625 1.42578125 C-2 0 -2 0 0 0 Z " fill="#F5750F" transform="translate(250,550)"/>
<path d="M0 0 C1.134375 0.020625 2.26875 0.04125 3.4375 0.0625 C0.4375 2.0625 0.4375 2.0625 -2.5625 2.0625 C-2.5625 4.0425 -2.5625 6.0225 -2.5625 8.0625 C-1.9025 8.3925 -1.2425 8.7225 -0.5625 9.0625 C-1.8825 9.0625 -3.2025 9.0625 -4.5625 9.0625 C-4.66015625 2.91015625 -4.66015625 2.91015625 -4.5625 1.0625 C-3.5625 0.0625 -3.5625 0.0625 0 0 Z " fill="#111E34" transform="translate(436.5625,605.9375)"/>
<path d="M0 0 C0.99 0.99 1.98 1.98 3 3 C1.60667426 6.36720387 0.0210714 7.9859524 -3 10 C-3.1875 7.6875 -3.1875 7.6875 -3 5 C-1.5 3.3125 -1.5 3.3125 0 2 C0 1.34 0 0.68 0 0 Z " fill="#FB4E09" transform="translate(332,438)"/>
<path d="M0 0 C2.35953094 2.35953094 2.49141413 3.77895617 3 7 C4.98 7 6.96 7 9 7 C9 7.66 9 8.32 9 9 C6.69 9 4.38 9 2 9 C0 3.375 0 3.375 0 0 Z " fill="#020D2B" transform="translate(649,409)"/>
<path d="M0 0 C2.0625 0.4375 2.0625 0.4375 4 1 C3.34 2.32 2.68 3.64 2 5 C0.68 5 -0.64 5 -2 5 C-1.125 1.125 -1.125 1.125 0 0 Z " fill="#ECEFF1" transform="translate(307,471)"/>
<path d="M0 0 C0.66 0 1.32 0 2 0 C2.33 2.31 2.66 4.62 3 7 C1.35 7.66 -0.3 8.32 -2 9 C-1.34 6.03 -0.68 3.06 0 0 Z " fill="#E1E6EA" transform="translate(654,554)"/>
<path d="M0 0 C2 3 2 3 1.625 5.6875 C1.41875 6.450625 1.2125 7.21375 1 8 C-0.65 8 -2.3 8 -4 8 C-3.01 7.34 -2.02 6.68 -1 6 C-0.83328148 3.4582293 -0.83328148 3.4582293 -1 1 C-0.67 0.67 -0.34 0.34 0 0 Z " fill="#021834" transform="translate(623,520)"/>
<path d="M0 0 C0 0.99 0 1.98 0 3 C-2.31 3 -4.62 3 -7 3 C-7 2.01 -7 1.02 -7 0 C-4.3333581 -1.33332095 -2.83319697 -0.67102033 0 0 Z " fill="#F7F3F1" transform="translate(168,595)"/>
<path d="M0 0 C0.99 0 1.98 0 3 0 C3.33 3.3 3.66 6.6 4 10 C1.04816899 7.04816899 0.91336012 4.04488053 0 0 Z " fill="#061631" transform="translate(559,565)"/>
<path d="M0 0 C0.33 0.66 0.66 1.32 1 2 C-1.40436026 5.60654039 -2.94679607 5.85452932 -7 7 C-2.25 1.125 -2.25 1.125 0 0 Z " fill="#F3760E" transform="translate(326,491)"/>
<path d="M0 0 C1.485 0.99 1.485 0.99 3 2 C2.34 3.98 1.68 5.96 1 8 C0.34 8 -0.32 8 -1 8 C-0.67 5.36 -0.34 2.72 0 0 Z " fill="#F0F2F4" transform="translate(535,539)"/>
<path d="M0 0 C0.66 0 1.32 0 2 0 C1.74438677 2.3431213 1.40729228 4.67843403 1 7 C0.01 7.495 0.01 7.495 -1 8 C-1.125 2.25 -1.125 2.25 0 0 Z " fill="#081832" transform="translate(829,424)"/>
</svg>
